<svg viewBox="0 0 147 30" version="1.1" xmlns="http://www.w3.org/2000/svg" xmlns:xlink="http://www.w3.org/1999/xlink">
    <title>90523C1D-6F27-419C-9D4A-2C674F252C7E</title>
    <g id="Magic-Code-Landing-Page" stroke="none" stroke-width="1" fill="none" fill-rule="evenodd">
        <g transform="translate(-627.000000, -185.000000)" fill-rule="nonzero" id="ORCHA_Primary_Logo">
            <g transform="translate(627.000000, 185.000000)">
                <g id="Group" transform="translate(48.463466, 3.939394)" fill="#001871">
                    <path d="M11.1100209,0.251515152 C17.1725261,0.251515152 22.0219207,5.1030303 22.0219207,11.130303 C22.0219207,17.1575758 17.1725261,21.9515152 11.1100209,21.9515152 C5.04751566,21.9515152 0.228601253,17.1606061 0.228601253,11.130303 C0.228601253,5.10606061 5.04751566,0.251515152 11.1100209,0.251515152 Z M11.1100209,18.9393939 C15.4443006,18.9393939 18.9921921,15.4424242 18.9921921,11.1333333 C18.9921921,6.85454545 15.4443006,3.26666667 11.1100209,3.26666667 C6.80622129,3.26666667 3.25832985,6.85151515 3.25832985,11.1333333 C3.25832985,15.4424242 6.80622129,18.9393939 11.1100209,18.9393939 Z" id="Shape"></path>
                    <path d="M24.0640919,1.12727273 C24.0640919,0.824242424 24.3079332,0.554545455 24.640167,0.554545455 L32.8850522,0.554545455 C36.5213361,0.554545455 39.4931524,3.41818182 39.4931524,7.0030303 C39.4931524,9.77575758 37.6430063,12.0666667 35.0064718,13.1212121 L39.1609186,20.7757576 C39.3742797,21.1666667 39.1609186,21.6484848 38.6458038,21.6484848 L36.2805428,21.6484848 C36.0367015,21.6484848 35.8568685,21.4969697 35.7959081,21.3787879 L31.763382,13.3909091 L27.185261,13.3909091 L27.185261,21.0757576 C27.185261,21.3757576 26.9139875,21.6484848 26.6091858,21.6484848 L24.640167,21.6484848 C24.3079332,21.6484848 24.0640919,21.3787879 24.0640919,21.0757576 L24.0640919,1.12727273 L24.0640919,1.12727273 Z M32.6442589,10.8 C34.6132777,10.8 36.3415031,9.14242424 36.3415031,7.06363636 C36.3415031,5.10606061 34.6132777,3.47878788 32.6442589,3.47878788 L27.2492693,3.47878788 L27.2492693,10.8030303 L32.6442589,10.8030303 L32.6442589,10.8 Z" id="Shape"></path>
                    <path d="M52.1668058,18.8787879 C47.8325261,18.8787879 44.528476,15.2909091 44.528476,11.0727273 C44.528476,6.85454545 47.8020459,3.23636364 52.1363257,3.23636364 C53.3220042,3.23636364 54.5351148,3.54848485 55.6263048,4.09090909 C55.9067223,4.23030303 56.2359081,4.03030303 56.2359081,3.71818182 L56.2359081,1.53030303 C56.2359081,1.21515152 56.034739,0.939393939 55.7360334,0.833333333 C54.9465971,0.557575758 54.1022965,0.375757576 53.1756994,0.296969697 C47.3661795,-0.196969697 42.1296868,3.73333333 41.2853862,9.46666667 C40.2886848,16.2515152 45.4946973,21.9515152 52.1058455,21.9515152 C53.3494363,21.9515152 54.571691,21.7515152 55.7329854,21.3424242 C56.031691,21.2363636 56.2359081,20.9606061 56.2359081,20.6454545 L56.2359081,18.4060606 C56.2359081,18.0878788 55.8975783,17.8909091 55.6171608,18.0393939 C54.6265553,18.5484848 53.5201253,18.8787879 52.1668058,18.8787879 Z" id="Path"></path>
                    <path d="M58.6560334,1.12727273 C58.6560334,0.824242424 58.9303549,0.554545455 59.2321086,0.554545455 L61.2316075,0.554545455 C61.5638413,0.554545455 61.8076827,0.824242424 61.8076827,1.12727273 L61.8076827,9.53636364 L72.9024635,9.53636364 L72.9024635,1.12727273 C72.9024635,0.824242424 73.1463048,0.554545455 73.4785386,0.554545455 L75.4780376,0.554545455 C75.7797912,0.554545455 76.0541127,0.824242424 76.0541127,1.12727273 L76.0541127,21.0787879 C76.0541127,21.3787879 75.7797912,21.6515152 75.4780376,21.6515152 L73.4785386,21.6515152 C73.1463048,21.6515152 72.9024635,21.3818182 72.9024635,21.0787879 L72.9024635,12.369697 L61.8076827,12.369697 L61.8076827,21.0787879 C61.8076827,21.3787879 61.5638413,21.6515152 61.2316075,21.6515152 L59.2321086,21.6515152 C58.9303549,21.6515152 58.6560334,21.3818182 58.6560334,21.0787879 L58.6560334,1.12727273 Z" id="Path"></path>
                    <path d="M77.5720251,20.8666667 L86.87762,0.584848485 C86.9690605,0.403030303 87.240334,0.254545455 87.3927349,0.254545455 L87.6944885,0.254545455 C87.8468894,0.254545455 88.1181628,0.406060606 88.2096033,0.584848485 L97.454238,20.8666667 C97.637119,21.2575758 97.3932777,21.6515152 96.9391232,21.6515152 L95.0280167,21.6515152 C94.6653027,21.6515152 94.4519415,21.469697 94.3300209,21.2 L92.4493946,17.069697 L82.5372443,17.069697 C81.9306889,18.4545455 81.2936534,19.8121212 80.6870981,21.2 C80.5956576,21.4121212 80.3548643,21.6515152 79.9891023,21.6515152 L78.0779958,21.6515152 C77.6329854,21.6515152 77.3921921,21.2575758 77.5720251,20.8666667 Z M91.3063883,14.4787879 L87.5786639,6.22121212 L87.426263,6.22121212 L83.7290188,14.4787879 L91.3063883,14.4787879 Z" id="Shape"></path>
                </g>
                <path d="M41.3128184,0.424242424 C32.7814196,-1.04545455 24.7102714,4 23.3782881,11.6363636 L22.6955324,15.5515152 C22.5217954,16.5545455 22.2048017,17.5060606 21.7658873,18.3878788 C24.1250522,23.1454545 29.9833403,25.9727273 36.0214614,24.9393939 C38.3074739,22.7060606 39.9137787,19.8606061 40.4776618,16.6151515 L43.2422129,0.754545455 L41.3128184,0.424242424 Z" id="XMLID_6_" fill="#2AD2C9"></path>
                <path d="M21.7658873,18.3878788 C21.3269729,17.5060606 21.0099791,16.5545455 20.8362422,15.5515152 L20.1534864,11.6363636 C18.8215031,4 10.7503549,-1.04848485 2.21895616,0.424242424 L0.28651357,0.757575758 L3.05106472,16.6181818 C3.61799582,19.8636364 5.22125261,22.7090909 7.50726514,24.9424242 C13.5484342,25.9727273 19.4097704,23.1454545 21.7658873,18.3878788 Z" id="XMLID_4_" fill="#E31C79"></path>
                <path d="M21.7658873,18.3878788 C19.4097704,23.1454545 13.5484342,25.9727273 7.51031315,24.9393939 C7.53469729,24.9636364 7.56212944,24.9909091 7.58651357,25.0151515 C10.1651357,27.2030303 13.4234656,28.7848485 17.1024217,29.4181818 L19.3762422,29.8090909 C20.1778706,29.9484848 23.353904,29.9484848 24.1555324,29.8090909 L26.4293528,29.4181818 C30.108309,28.7848485 33.3666388,27.2030303 35.945261,25.0151515 C35.9696451,24.9909091 35.9970772,24.9636364 36.0214614,24.9393939 C29.9833403,25.9727273 24.1250522,23.1454545 21.7658873,18.3878788 Z" id="XMLID_3_" fill="#001871"></path>
            </g>
        </g>
    </g>
</svg>
